<?xml version="1.0" standalone="no"?>
<!DOCTYPE svg PUBLIC "-//W3C//DTD SVG 1.1//EN" "http://www.w3.org/Graphics/SVG/1.1/DTD/svg11.dtd">
<svg xmlns="http://www.w3.org/2000/svg" xmlns:xlink="http://www.w3.org/1999/xlink" xmlns:serif="http://www.serif.com/" width="4920" height="1080" viewBox="0 0 4920 1080" version="1.1" xml:space="preserve" style="fill-rule:evenodd;clip-rule:evenodd;stroke-linejoin:round;stroke-miterlimit:2;">
    <g id="Logo-Dimensions" serif:id="Logo Dimensions" transform="matrix(1.42805,0,0,1.42805,1126.19,30.8671)">
        <g transform="matrix(1.06667,0,0,1.06667,-1284.79,-145.993)">
            <g transform="matrix(397.705,0,0,397.705,1444.21,634.183)">
                <path d="M0.206,-0C0.254,-0 0.292,-0.013 0.321,-0.039C0.338,-0.054 0.351,-0.072 0.36,-0.095C0.368,-0.116 0.372,-0.141 0.372,-0.168L0.372,-0.528C0.372,-0.584 0.355,-0.627 0.322,-0.658C0.292,-0.686 0.253,-0.7 0.206,-0.7L0.04,-0.7L0.04,-0L0.206,-0ZM0.15,-0.59L0.206,-0.59C0.225,-0.59 0.238,-0.586 0.247,-0.578C0.257,-0.568 0.262,-0.551 0.262,-0.528L0.262,-0.168C0.262,-0.145 0.257,-0.129 0.248,-0.121C0.24,-0.114 0.226,-0.11 0.206,-0.11L0.15,-0.11L0.15,-0.59Z" style="fill-rule:nonzero;"/>
            </g>
            <g transform="matrix(397.705,0,0,397.705,1604.49,634.183)">
                <path d="M0.33,-0.59L0.15,-0.59L0.15,-0.414L0.274,-0.414L0.274,-0.304L0.15,-0.304L0.15,-0.11L0.33,-0.11L0.33,-0L0.04,-0L0.04,-0.7L0.33,-0.7L0.33,-0.59Z" style="fill-rule:nonzero;"/>
            </g>
            <g transform="matrix(397.705,0,0,397.705,1746.86,634.183)">
                <path d="M0.19,0.008C0.238,0.008 0.277,-0.006 0.306,-0.033C0.339,-0.065 0.356,-0.109 0.356,-0.164L0.356,-0.208C0.356,-0.272 0.331,-0.326 0.282,-0.37C0.269,-0.382 0.245,-0.397 0.21,-0.416C0.191,-0.427 0.178,-0.435 0.171,-0.44C0.146,-0.462 0.134,-0.488 0.134,-0.519L0.134,-0.536C0.134,-0.56 0.139,-0.577 0.149,-0.586C0.158,-0.594 0.171,-0.598 0.19,-0.598C0.209,-0.598 0.223,-0.594 0.231,-0.586C0.241,-0.577 0.246,-0.561 0.246,-0.536L0.246,-0.475L0.356,-0.475L0.356,-0.536C0.356,-0.591 0.339,-0.635 0.306,-0.667C0.277,-0.694 0.238,-0.708 0.19,-0.708C0.142,-0.708 0.103,-0.694 0.074,-0.667C0.041,-0.635 0.024,-0.591 0.024,-0.536L0.024,-0.519C0.024,-0.488 0.03,-0.458 0.043,-0.431C0.056,-0.404 0.074,-0.379 0.098,-0.358C0.113,-0.345 0.136,-0.331 0.167,-0.314C0.19,-0.301 0.204,-0.293 0.209,-0.288C0.234,-0.265 0.246,-0.239 0.246,-0.208L0.246,-0.164C0.246,-0.139 0.241,-0.123 0.231,-0.114C0.223,-0.106 0.209,-0.102 0.19,-0.102C0.171,-0.102 0.158,-0.106 0.149,-0.114C0.139,-0.123 0.134,-0.14 0.134,-0.164L0.134,-0.255L0.024,-0.255L0.024,-0.164C0.024,-0.109 0.041,-0.065 0.074,-0.033C0.103,-0.006 0.142,0.008 0.19,0.008Z" style="fill-rule:nonzero;"/>
            </g>
            <g transform="matrix(397.705,0,0,397.705,1897.99,634.183)">
                <path d="M0.344,-0.7L0.344,-0.59L0.232,-0.59L0.232,-0L0.122,-0L0.122,-0.59L0.01,-0.59L0.01,-0.7L0.344,-0.7Z" style="fill-rule:nonzero;"/>
            </g>
            <g transform="matrix(397.705,0,0,397.705,2038.38,634.183)">
                <rect x="0.04" y="-0.7" width="0.11" height="0.7" style="fill-rule:nonzero;"/>
            </g>
            <g transform="matrix(397.705,0,0,397.705,2113.95,634.183)">
                <path d="M0.378,-0.7L0.378,-0L0.314,-0L0.146,-0.355L0.146,-0L0.036,-0L0.036,-0.7L0.1,-0.7L0.268,-0.346L0.268,-0.7L0.378,-0.7Z" style="fill-rule:nonzero;"/>
            </g>
            <g transform="matrix(397.705,0,0,397.705,2278.6,634.183)">
                <path d="M0.387,-0.7L0.251,-0.246L0.251,-0L0.14,-0L0.14,-0.246L0.005,-0.7L0.121,-0.7L0.195,-0.449L0.271,-0.7L0.387,-0.7Z" style="fill-rule:nonzero;"/>
            </g>
        </g>
        <g transform="matrix(1.06667,0,0,1.06667,-191.82,-145.993)">
            <g transform="matrix(397.705,0,0,397.705,1444.21,634.183)">
                <path d="M0.177,0.009C0.219,0.009 0.253,-0.003 0.278,-0.026C0.306,-0.052 0.32,-0.09 0.32,-0.141L0.32,-0.242L0.283,-0.242L0.283,-0.141C0.283,-0.101 0.273,-0.072 0.253,-0.053C0.236,-0.036 0.21,-0.028 0.177,-0.028C0.144,-0.028 0.118,-0.036 0.101,-0.053C0.081,-0.072 0.071,-0.101 0.071,-0.141L0.071,-0.559C0.071,-0.599 0.081,-0.628 0.101,-0.647C0.118,-0.664 0.144,-0.672 0.177,-0.672C0.21,-0.672 0.236,-0.664 0.253,-0.647C0.273,-0.628 0.283,-0.599 0.283,-0.559L0.283,-0.49L0.32,-0.49L0.32,-0.559C0.32,-0.61 0.306,-0.648 0.278,-0.674C0.253,-0.697 0.219,-0.709 0.177,-0.709C0.135,-0.709 0.101,-0.697 0.076,-0.674C0.048,-0.648 0.034,-0.61 0.034,-0.559L0.034,-0.141C0.034,-0.09 0.048,-0.052 0.076,-0.026C0.101,-0.003 0.135,0.009 0.177,0.009Z" style="fill-rule:nonzero;"/>
            </g>
            <g transform="matrix(397.705,0,0,397.705,1585,634.183)">
                <path d="M0.295,-0.7L0.332,-0.7L0.332,-0L0.295,-0L0.295,-0.34L0.082,-0.34L0.082,-0L0.045,-0L0.045,-0.7L0.082,-0.7L0.082,-0.377L0.295,-0.377L0.295,-0.7Z" style="fill-rule:nonzero;"/>
            </g>
            <g transform="matrix(397.705,0,0,397.705,1734.93,634.183)">
                <path d="M0.176,0.009C0.218,0.009 0.252,-0.003 0.277,-0.026C0.305,-0.052 0.319,-0.09 0.319,-0.141L0.319,-0.7L0.282,-0.7L0.282,-0.141C0.282,-0.102 0.272,-0.072 0.252,-0.053C0.233,-0.036 0.208,-0.028 0.176,-0.028C0.143,-0.028 0.117,-0.036 0.1,-0.053C0.08,-0.072 0.07,-0.102 0.07,-0.141L0.07,-0.7L0.033,-0.7L0.033,-0.141C0.033,-0.09 0.047,-0.052 0.075,-0.026C0.1,-0.003 0.134,0.009 0.176,0.009Z" style="fill-rule:nonzero;"/>
            </g>
            <g transform="matrix(397.705,0,0,397.705,1874.93,634.183)">
                <path d="M0.327,-0L0.288,-0L0.19,-0.311L0.077,-0.311L0.077,-0L0.04,-0L0.04,-0.7L0.184,-0.7C0.226,-0.7 0.26,-0.688 0.285,-0.665C0.313,-0.639 0.327,-0.601 0.327,-0.55L0.327,-0.461C0.327,-0.41 0.313,-0.372 0.285,-0.346C0.269,-0.332 0.25,-0.322 0.227,-0.316L0.327,-0ZM0.184,-0.348C0.216,-0.348 0.241,-0.356 0.259,-0.373C0.28,-0.392 0.29,-0.421 0.29,-0.461L0.29,-0.55C0.29,-0.59 0.28,-0.619 0.259,-0.638C0.241,-0.655 0.216,-0.663 0.184,-0.663L0.077,-0.663L0.077,-0.348L0.184,-0.348Z" style="fill-rule:nonzero;"/>
            </g>
            <g transform="matrix(397.705,0,0,397.705,2016.11,634.183)">
                <path d="M0.177,0.009C0.219,0.009 0.253,-0.003 0.278,-0.026C0.306,-0.052 0.32,-0.09 0.32,-0.141L0.32,-0.242L0.283,-0.242L0.283,-0.141C0.283,-0.101 0.273,-0.072 0.253,-0.053C0.236,-0.036 0.21,-0.028 0.177,-0.028C0.144,-0.028 0.118,-0.036 0.101,-0.053C0.081,-0.072 0.071,-0.101 0.071,-0.141L0.071,-0.559C0.071,-0.599 0.081,-0.628 0.101,-0.647C0.118,-0.664 0.144,-0.672 0.177,-0.672C0.21,-0.672 0.236,-0.664 0.253,-0.647C0.273,-0.628 0.283,-0.599 0.283,-0.559L0.283,-0.49L0.32,-0.49L0.32,-0.559C0.32,-0.61 0.306,-0.648 0.278,-0.674C0.253,-0.697 0.219,-0.709 0.177,-0.709C0.135,-0.709 0.101,-0.697 0.076,-0.674C0.048,-0.648 0.034,-0.61 0.034,-0.559L0.034,-0.141C0.034,-0.09 0.048,-0.052 0.076,-0.026C0.101,-0.003 0.135,0.009 0.177,0.009Z" style="fill-rule:nonzero;"/>
            </g>
            <g transform="matrix(397.705,0,0,397.705,2156.9,634.183)">
                <path d="M0.295,-0.7L0.332,-0.7L0.332,-0L0.295,-0L0.295,-0.34L0.082,-0.34L0.082,-0L0.045,-0L0.045,-0.7L0.082,-0.7L0.082,-0.377L0.295,-0.377L0.295,-0.7Z" style="fill-rule:nonzero;"/>
            </g>
        </g>
    </g>
    <g transform="matrix(1.4281,0,0,1.4281,411.336,95.4253)">
        <g id="Accepted-Logo-black" serif:id="Accepted Logo black">
            <g id="Main-Logo" serif:id="Main Logo">
                <g transform="matrix(-76.0797,144.358,144.358,76.0797,514.281,250.622)">
                    <path d="M-1.085,0.338C-0.033,-0.585 1.029,-0.683 1.425,-0.75C1.499,-0.762 1.652,-0.857 1.652,-0.857C1.909,-0.622 2.008,-0.551 2.008,-0.551C2.097,-0.326 1.574,-0.309 1.574,-0.309C0.029,-0.026 -0.255,0.465 -0.958,0.74C-1.135,0.808 -1.236,0.68 -1.236,0.68C-1.27,0.626 -1.275,0.571 -1.244,0.513C-1.207,0.443 -1.125,0.373 -1.085,0.338Z" style="fill-rule:nonzero;"/>
                </g>
                <g id="check-curve" transform="matrix(39.0889,223.931,223.931,-39.0889,242.816,359.141)">
                    <path d="M-1.094,-0.292C-1.07,-0.343 -1.058,-0.397 -0.868,-0.334C-0.725,-0.282 -0.582,-0.227 -0.435,-0.187C-0.066,-0.085 -0.063,-0.082 0.339,-0.037C0.394,-0.031 0.605,-0.018 0.667,0.019C0.715,0.048 0.729,0.135 0.709,0.182C0.69,0.225 0.654,0.26 0.621,0.293C0.609,0.298 0.599,0.303 0.586,0.304C0.471,0.31 0.355,0.321 0.239,0.313C-0.02,0.294 -0.368,0.218 -0.612,0.129C-0.721,0.09 -0.83,0.045 -0.927,-0.018C-0.983,-0.053 -1.024,-0.108 -1.065,-0.16C-1.081,-0.179 -1.088,-0.205 -1.095,-0.229C-1.095,-0.229 -1.103,-0.273 -1.094,-0.292Z" style="fill-rule:nonzero;"/>
                </g>
                <g id="shadow" transform="matrix(1,0,0,1,119.854,219.054)">
                    <path d="M7.41,-62.326C5.751,-65.89 27.382,-99.523 133.732,8.239C140.457,18.315 144.704,28.678 149.72,38.868C149.075,38.494 148.902,38.637 146.301,37.057C108.191,13.903 50.783,-22.668 16.666,-38.478C19.974,-47.866 48.363,-51.771 7.41,-62.326Z" style="fill:rgb(33,32,27);fill-rule:nonzero;"/>
                </g>
                <g transform="matrix(108.454,147.759,-150.512,110.475,353.526,299.276)">
                    <path d="M-1.506,0.406C-1.495,0.456 -1.444,0.53 -1.313,0.548L-1.258,0.557C-1.246,0.559 -1.234,0.56 -1.223,0.561C-1.21,0.553 -1.195,0.543 -1.182,0.536C-1.016,0.448 -0.848,0.36 -0.667,0.268C-0.245,0.055 0.28,-0.124 1.174,-0.099C1.344,-0.095 1.483,-0.041 1.468,-0.296C1.468,-0.296 1.456,-0.364 1.272,-0.607C1.272,-0.607 1.122,-0.541 1.056,-0.539C0.698,-0.526 -0.248,-0.569 -1.33,0.132C-1.371,0.159 -1.441,0.206 -1.483,0.267C-1.519,0.319 -1.515,0.365 -1.506,0.406Z" style="fill-rule:nonzero;"/>
                </g>
                <g transform="matrix(-73.6269,135.143,135.143,73.6269,538.008,244.305)">
                    <path d="M-1.035,0.234C0.08,-0.745 1.429,-0.874 1.429,-0.874C1.429,-0.876 1.556,-0.734 1.601,-0.685C1.677,-0.604 1.778,-0.531 1.778,-0.531C1.833,-0.491 1.89,-0.469 1.934,-0.453C1.984,-0.435 2.016,-0.422 2.016,-0.422C0.394,-0.199 -0.26,0.303 -0.968,0.704C-1.147,0.806 -1.222,0.648 -1.222,0.648C-1.272,0.583 -1.261,0.512 -1.227,0.447C-1.178,0.355 -1.08,0.273 -1.035,0.234Z" style="fill-rule:nonzero;"/>
                </g>
                <g id="shadow1" serif:id="shadow" transform="matrix(1,0,0,1,698.164,250.171)">
                    <path d="M-23.389,-138.147C-21.845,-138.685 -27.864,-138.499 -27.864,-138.499C-27.864,-138.499 -57.759,-114.206 -128.687,0.971C-128.687,0.971 -110.405,-10.093 -106.893,-10.366L-23.389,-138.147Z" style="fill:rgb(33,32,27);fill-rule:nonzero;"/>
                </g>
                <g id="shadow2" serif:id="shadow" transform="matrix(1,0,0,1.00746,513.03,362.169)">
                    <path d="M-1.67,122.239C-2.884,82.836 -1.391,73.969 -0.736,65.375C1.788,32.258 3.551,23.945 4.216,19.504C7.623,-3.248 7.914,-2.507 7.975,-2.726C7.975,-2.726 18.473,10.388 19.556,12.015C45.041,50.269 2.947,123.856 2.947,123.856" style="fill:rgb(33,32,27);fill-rule:nonzero;"/>
                </g>
                <g transform="matrix(-74.3061,-105.694,105.694,-74.3061,642.823,345.132)">
                    <path d="M-0.305,-1.457C-0.4,-1.448 -0.471,-1.458 -0.57,-1.411C-0.687,-1.356 -0.73,-1.263 -0.716,-1.157C-0.698,-1.027 -0.491,-0.828 -0.363,-0.676C-0.128,-0.396 0.18,0.068 0.408,0.502C0.569,0.808 0.607,0.942 0.733,1.184C0.798,1.308 0.937,1.482 1.097,1.464C1.189,1.454 1.313,1.333 1.355,1.216C1.333,1.071 1.042,0.385 1.022,0.346C0.816,-0.07 0.488,-0.621 0.194,-0.983C0.075,-1.129 -0.084,-1.282 -0.228,-1.398C-0.259,-1.423 -0.266,-1.428 -0.303,-1.456C-0.304,-1.456 -0.304,-1.457 -0.305,-1.457Z" style="fill:rgb(2,0,2);fill-rule:nonzero;"/>
                </g>
                <g id="shadow3" serif:id="shadow" transform="matrix(1,0,0,1,333.576,362.528)">
                    <path d="M-0.937,123.123C1.774,103.319 1.811,96.779 1.795,92.337C1.675,58.073 -3.773,30.812 -9.016,-2.828C-9.082,-2.881 -16.51,7.031 -18.812,10.528C-4.21,72.148 -4.773,71.065 -2.17,97.156C-1.641,102.459 -0.937,123.123 -0.937,123.123Z" style="fill:rgb(33,32,27);fill-rule:nonzero;"/>
                </g>
            </g>
        </g>
    </g>
</svg>